<mxfile host="65bd71144e">
    <diagram id="2c5Nzc5dlvZ7kkpa2Jq3" name="PÃ¡gina-1">
        <mxGraphModel dx="744" dy="432" grid="1" gridSize="10" guides="1" tooltips="1" connect="1" arrows="1" fold="1" page="1" pageScale="1" pageWidth="827" pageHeight="1169" math="0" shadow="0">
            <root>
                <mxCell id="0"/>
                <mxCell id="1" parent="0"/>
                <mxCell id="2" value="" style="rounded=0;whiteSpace=wrap;html=1;" vertex="1" parent="1">
                    <mxGeometry x="170" y="50" width="470" height="480" as="geometry"/>
                </mxCell>
                <mxCell id="3" value="" style="endArrow=none;html=1;exitX=0;exitY=0.25;exitDx=0;exitDy=0;entryX=1;entryY=0.25;entryDx=0;entryDy=0;" edge="1" parent="1" source="2" target="2">
                    <mxGeometry width="50" height="50" relative="1" as="geometry">
                        <mxPoint x="360" y="270" as="sourcePoint"/>
                        <mxPoint x="410" y="220" as="targetPoint"/>
                    </mxGeometry>
                </mxCell>
                <mxCell id="4" value="" style="endArrow=none;html=1;exitX=0;exitY=0.75;exitDx=0;exitDy=0;entryX=1;entryY=0.75;entryDx=0;entryDy=0;" edge="1" parent="1" source="6" target="6">
                    <mxGeometry width="50" height="50" relative="1" as="geometry">
                        <mxPoint x="180" y="117.5" as="sourcePoint"/>
                        <mxPoint x="450" y="117.5" as="targetPoint"/>
                    </mxGeometry>
                </mxCell>
                <mxCell id="5" value="&lt;font style=&quot;font-size: 24px;&quot;&gt;ColaPrior&lt;/font&gt;" style="text;html=1;strokeColor=none;fillColor=none;align=center;verticalAlign=middle;whiteSpace=wrap;rounded=0;" vertex="1" parent="1">
                    <mxGeometry x="170" y="50" width="470" height="120" as="geometry"/>
                </mxCell>
                <mxCell id="6" value="&lt;div style=&quot;&quot;&gt;&lt;span style=&quot;background-color: initial;&quot;&gt;&lt;font style=&quot;font-size: 18px;&quot;&gt;- indexQ: *string&lt;/font&gt;&lt;/span&gt;&lt;/div&gt;&lt;div style=&quot;&quot;&gt;&lt;span style=&quot;background-color: initial;&quot;&gt;&lt;font size=&quot;3&quot;&gt;- Dim: int&lt;/font&gt;&lt;/span&gt;&lt;/div&gt;&lt;div style=&quot;&quot;&gt;&lt;span style=&quot;background-color: initial;&quot;&gt;&lt;font size=&quot;3&quot;&gt;- Prio: *int&lt;/font&gt;&lt;/span&gt;&lt;/div&gt;&lt;div style=&quot;&quot;&gt;&lt;span style=&quot;background-color: initial;&quot;&gt;&lt;font size=&quot;3&quot;&gt;- First: string&lt;/font&gt;&lt;/span&gt;&lt;/div&gt;" style="text;html=1;strokeColor=none;fillColor=none;align=left;verticalAlign=middle;whiteSpace=wrap;rounded=0;" vertex="1" parent="1">
                    <mxGeometry x="170" y="150" width="470" height="190" as="geometry"/>
                </mxCell>
                <mxCell id="7" value="&lt;div style=&quot;&quot;&gt;&lt;font style=&quot;font-size: 16px;&quot;&gt;- copyData(acpy: *string, start:int, end:int , paralel:short int,&amp;nbsp; &amp;nbsp; &amp;nbsp; &amp;nbsp;copyPrio: *int):void&lt;/font&gt;&lt;/div&gt;&lt;div style=&quot;&quot;&gt;&lt;font size=&quot;3&quot;&gt;+&amp;nbsp;&lt;span style=&quot;background-color: initial;&quot;&gt;ColaPrior()&lt;/span&gt;&lt;/font&gt;&lt;/div&gt;&lt;div&gt;&lt;font size=&quot;3&quot;&gt;+ ~ColaPrior()&lt;/font&gt;&lt;/div&gt;&lt;div&gt;&lt;font size=&quot;3&quot;&gt;+&amp;nbsp;&lt;span style=&quot;background-color: initial;&quot;&gt;Alta(x:string):void&lt;/span&gt;&lt;/font&gt;&lt;/div&gt;&lt;div&gt;&lt;font size=&quot;3&quot;&gt;+ Baja():string&lt;span style=&quot;background-color: initial;&quot;&gt;&lt;br&gt;&lt;/span&gt;&lt;/font&gt;&lt;/div&gt;&lt;div&gt;&lt;font size=&quot;3&quot;&gt;+ GetFirst():string&lt;/font&gt;&lt;/div&gt;&lt;div&gt;&lt;div&gt;&lt;font size=&quot;3&quot;&gt;+ Vaciar() : void&lt;/font&gt;&lt;/div&gt;&lt;/div&gt;&lt;div&gt;&lt;font size=&quot;3&quot;&gt;+ toString(): void&lt;/font&gt;&lt;/div&gt;&lt;div&gt;&lt;font size=&quot;3&quot;&gt;+ DisplayInterfaz() : void&lt;/font&gt;&lt;/div&gt;&lt;div&gt;&lt;br&gt;&lt;/div&gt;&lt;div&gt;&lt;br&gt;&lt;/div&gt;" style="text;html=1;strokeColor=none;fillColor=none;align=left;verticalAlign=middle;whiteSpace=wrap;rounded=0;" vertex="1" parent="1">
                    <mxGeometry x="170" y="300" width="470" height="250" as="geometry"/>
                </mxCell>
            </root>
        </mxGraphModel>
    </diagram>
</mxfile>